<?xml version="1.0" encoding="utf-8"?>
<!-- Generator: Adobe Illustrator 16.0.0, SVG Export Plug-In . SVG Version: 6.00 Build 0)  -->
<!DOCTYPE svg PUBLIC "-//W3C//DTD SVG 1.1//EN" "http://www.w3.org/Graphics/SVG/1.1/DTD/svg11.dtd">
<svg version="1.1" id="Layer_1" xmlns="http://www.w3.org/2000/svg" xmlns:xlink="http://www.w3.org/1999/xlink" x="0px" y="0px"
	 width="64px" height="64px" viewBox="0 0 64 64" enable-background="new 0 0 64 64" xml:space="preserve">
<path fill="#22424F" d="M0,5.392v47.825h16V5.392H0z M12.963,32.215c0,1.347-0.228,2.414-0.683,3.201
	c-0.771,1.332-2.16,1.998-4.17,1.998s-3.358-0.537-4.044-1.615s-1.029-2.549-1.029-4.411v-0.365h3.126v0.365
	c0.027,1.225,0.153,2.086,0.378,2.584c0.225,0.498,0.708,0.746,1.448,0.746c0.733,0,1.218-0.271,1.453-0.816
	c0.141-0.322,0.212-0.867,0.212-1.633V21.194h3.309V32.215z"/>
<g>
	<path fill="#9A5D5E" d="M24.005,29.121c-1.311,0-2.356,0.483-3.137,1.45s-1.171,2.342-1.171,4.124c0,1.783,0.391,3.158,1.171,4.125
		s1.826,1.451,3.137,1.451s2.351-0.484,3.122-1.451c0.77-0.967,1.154-2.342,1.154-4.125c0-1.775-0.385-3.148-1.154-4.119
		C26.355,29.606,25.315,29.121,24.005,29.121z"/>
	<path fill="#9A5D5E" d="M16,10.784v47.825h16V10.784H16z M29.193,41.227c-1.195,1.232-2.926,1.848-5.188,1.848
		s-3.992-0.615-5.188-1.848c-1.604-1.51-2.406-3.688-2.406-6.531c0-2.899,0.802-5.076,2.406-6.53
		c1.196-1.231,2.926-1.848,5.188-1.848s3.993,0.616,5.188,1.848c1.598,1.454,2.396,3.631,2.396,6.53
		C31.59,37.539,30.791,39.717,29.193,41.227z"/>
</g>
<path fill="#5C6D70" d="M32,0v47.824h16V0H32z M46.365,31.829h-3.287v-7.068h-6.156v7.068h-3.287V15.995h3.287v6.037h6.156v-6.037
	h3.287V31.829z"/>
<path fill="#A37774" d="M48,16.175V64h16V16.175H48z M62.418,48.004h-3.307L52.664,36.77v11.234h-3.082V32.171h3.469l6.285,11.04
	v-11.04h3.082V48.004z"/>
</svg>
