<?xml version="1.0" encoding="utf-8"?>
<!-- Generator: Adobe Illustrator 16.0.0, SVG Export Plug-In . SVG Version: 6.00 Build 0)  -->
<!DOCTYPE svg PUBLIC "-//W3C//DTD SVG 1.1//EN" "http://www.w3.org/Graphics/SVG/1.1/DTD/svg11.dtd">
<svg version="1.1" id="Layer_1" xmlns="http://www.w3.org/2000/svg" xmlns:xlink="http://www.w3.org/1999/xlink" x="0px" y="0px"
	 width="1080px" height="127.462px" viewBox="0 0 1080 127.462" enable-background="new 0 0 1080 127.462" xml:space="preserve">
<g>
	<rect y="0.184" fill="#FFFFFF" width="134.756" height="29.948"/>
	<rect y="37.616" fill="#FFFFFF" width="29.94" height="89.846"/>
	<rect x="142.249" y="0.184" fill="#FFFFFF" width="29.948" height="127.278"/>
	<rect x="37.434" y="37.616" fill="#FFFFFF" width="97.322" height="37.434"/>
	<rect x="37.434" y="82.535" fill="#FFFFFF" width="44.918" height="44.927"/>
	<rect x="89.837" y="82.535" fill="#FFFFFF" width="44.918" height="44.927"/>
</g>
<g>
	<g>
		<path fill="#FFFFFF" d="M253.298,98.284c-3.548,0-6.723-0.588-9.522-1.763c-2.801-1.176-5.585-3.281-8.348-6.341h-1.106
			c0.74,4.914,1.106,7.958,1.106,9.148v28.133h-24.164V27.019h19.654l3.403,8.904h1.106c4.494-6.769,10.697-10.141,18.61-10.141
			c7.744,0,13.825,3.212,18.235,9.645c4.41,6.425,6.608,15.237,6.608,26.454c0,11.284-2.297,20.182-6.891,26.667
			C267.398,95.041,261.164,98.284,253.298,98.284z M245.194,44.759c-3.54,0-6.027,1.259-7.447,3.8
			c-1.419,2.533-2.189,6.287-2.319,11.277v1.915c0,6.02,0.809,10.369,2.411,13.047c1.61,2.671,4.144,4.014,7.607,4.014
			c3.09,0,5.333-1.327,6.737-3.99c1.396-2.647,2.099-7.051,2.099-13.185c0-6.028-0.702-10.339-2.099-12.956
			C250.779,46.063,248.452,44.759,245.194,44.759z"/>
		<path fill="#FFFFFF" d="M326.479,98.284c-11.659,0-20.716-3.099-27.163-9.302c-6.448-6.203-9.676-15.031-9.676-26.491
			c0-11.827,2.991-20.899,8.966-27.225s14.497-9.484,25.584-9.484c10.553,0,18.701,2.747,24.446,8.248
			c5.754,5.501,8.622,13.422,8.622,23.761v10.766h-43.201c0.16,3.914,1.595,6.981,4.296,9.202c2.701,2.228,6.371,3.342,11.033,3.342
			c4.242,0,8.148-0.396,11.712-1.205c3.563-0.802,7.424-2.175,11.59-4.113v17.366c-3.792,1.946-7.706,3.281-11.742,4.021
			C336.901,97.91,332.079,98.284,326.479,98.284z M325.059,42.218c-2.846,0-5.227,0.9-7.142,2.693s-3.036,4.608-3.364,8.431h20.769
			c-0.084-3.372-1.045-6.073-2.876-8.095C330.606,43.225,328.149,42.218,325.059,42.218z"/>
		<path fill="#FFFFFF" d="M413.202,25.782c2.099,0,4.098,0.16,5.997,0.496l1.358,0.244l-2.167,22.807
			c-1.976-0.496-4.715-0.74-8.218-0.74c-5.279,0-9.11,1.205-11.498,3.609c-2.389,2.418-3.586,5.89-3.586,10.422v34.428h-24.165
			V27.019h17.984l3.77,11.186h1.175c2.021-3.708,4.837-6.707,8.438-8.996C405.9,26.927,409.532,25.782,413.202,25.782z"/>
		<path fill="#FFFFFF" d="M473.099,45.125h-14.901v51.923h-24.165V45.125h-9.271V33.26l9.767-5.937v-1.175
			c0-9.232,1.885-15.863,5.654-19.899c3.77-4.044,9.82-6.065,18.145-6.065c3.212,0,6.249,0.251,9.118,0.739
			c2.861,0.496,6.188,1.374,9.979,2.61l-5.195,15.634c-2.969-0.824-5.868-1.236-8.714-1.236c-1.854,0-3.205,0.564-4.052,1.702
			c-0.839,1.129-1.267,2.976-1.267,5.523v1.862h14.901V45.125z"/>
		<path fill="#FFFFFF" d="M516.423,98.284c-11.659,0-20.716-3.099-27.163-9.302s-9.675-15.031-9.675-26.491
			c0-11.827,2.99-20.899,8.965-27.225s14.505-9.484,25.592-9.484c10.545,0,18.693,2.747,24.439,8.248
			c5.753,5.501,8.63,13.422,8.63,23.761v10.766h-43.21c0.168,3.914,1.595,6.981,4.296,9.202c2.701,2.228,6.379,3.342,11.033,3.342
			c4.242,0,8.148-0.396,11.712-1.205c3.563-0.802,7.425-2.175,11.591-4.113v17.366c-3.793,1.946-7.707,3.281-11.743,4.021
			S522.031,98.284,516.423,98.284z M515.004,42.218c-2.847,0-5.227,0.9-7.135,2.693c-1.923,1.793-3.044,4.608-3.372,8.431h20.77
			c-0.084-3.372-1.046-6.073-2.877-8.095C520.559,43.225,518.094,42.218,515.004,42.218z"/>
		<path fill="#FFFFFF" d="M592.763,98.284c-11.461,0-20.136-3.091-26.05-9.271c-5.921-6.18-8.874-15.062-8.874-26.637
			c0-11.62,3.189-20.632,9.584-27.018c6.387-6.387,15.474-9.576,27.255-9.576c8.118,0,15.764,1.771,22.936,5.311l-7.111,17.862
			c-2.93-1.274-5.623-2.297-8.095-3.06c-2.473-0.764-5.052-1.137-7.729-1.137c-3.914,0-6.943,1.525-9.088,4.57
			c-2.137,3.044-3.212,7.363-3.212,12.918c0,11.208,4.143,16.809,12.422,16.809c7.088,0,13.887-2.06,20.403-6.181v19.229
			C608.977,96.224,601.499,98.284,592.763,98.284z"/>
		<path fill="#FFFFFF" d="M663.41,79.186c3.258,0,7.149-0.809,11.689-2.411v17.61c-3.259,1.404-6.364,2.411-9.31,3.006
			c-2.944,0.596-6.401,0.894-10.354,0.894c-8.118,0-13.963-1.984-17.55-5.96c-3.586-3.982-5.379-10.087-5.379-18.327V45.125h-8.47
			v-9.828l10.759-7.6l6.241-14.711h15.825v14.032h17.183v18.106h-17.183V72.38C656.863,76.919,659.045,79.186,663.41,79.186z"/>
	</g>
	<g>
		<path fill="#FFFFFF" d="M711.297,27.705c9.4,0,16.488,2.968,21.25,8.882c4.761,5.913,7.142,14.565,7.142,25.949
			c0,11.171-2.503,19.793-7.516,25.844c-5.006,6.073-12.048,9.095-21.12,9.095c-4.784,0-9.088-0.991-12.926-2.968
			s-6.867-4.776-9.095-8.408h-0.558l-1.731,10.141h-3.831V0h6.12v24.188c0,3.624-0.084,6.959-0.252,10.011l-0.176,5.257h0.428
			c2.563-4.036,5.639-7.004,9.247-8.904C701.889,28.651,706.23,27.705,711.297,27.705z M711.182,33.275
			c-7.92,0-13.597,2.266-17.015,6.806c-3.418,4.532-5.135,12.018-5.135,22.455v1.046c0,10.141,1.785,17.42,5.356,21.83
			c3.562,4.418,9.125,6.623,16.664,6.623c7.34,0,12.864-2.572,16.572-7.699c3.716-5.135,5.578-12.444,5.578-21.937
			C733.203,42.988,725.854,33.275,711.182,33.275z"/>
		<path fill="#FFFFFF" d="M799.135,96.239l-1.549-10.637h-0.496c-3.38,4.326-6.859,7.394-10.423,9.179
			c-3.563,1.801-7.775,2.693-12.644,2.693c-6.6,0-11.734-1.686-15.397-5.073c-3.678-3.381-5.509-8.058-5.509-14.032
			c0-6.562,2.731-11.651,8.195-15.283c5.463-3.632,13.367-5.539,23.722-5.745l12.796-0.382v-4.456
			c0-6.387-1.297-11.209-3.892-14.459c-2.602-3.266-6.783-4.891-12.552-4.891c-6.233,0-12.688,1.731-19.365,5.195l-2.289-5.317
			c7.387-3.472,14.681-5.196,21.898-5.196c7.379,0,12.896,1.915,16.542,5.753c3.655,3.822,5.479,9.812,5.479,17.931v44.721H799.135z
			 M774.391,91.913c7.18,0,12.841-2.053,16.977-6.158c4.15-4.104,6.219-9.805,6.219-17.099v-6.615l-11.751,0.495
			c-9.438,0.45-16.176,1.923-20.196,4.418c-4.014,2.495-6.021,6.379-6.021,11.659c0,4.204,1.282,7.478,3.861,9.805
			C766.058,90.745,769.69,91.913,774.391,91.913z"/>
		<path fill="#FFFFFF" d="M872.3,96.239V52.641c0-6.769-1.427-11.689-4.265-14.757c-2.854-3.075-7.257-4.608-13.246-4.608
			c-8.027,0-13.918,2.029-17.648,6.089c-3.731,4.059-5.601,10.651-5.601,19.762v37.113h-6.127V29.002h5.196l1.175,9.218h0.382
			c4.364-7.005,12.139-10.515,23.31-10.515c15.261,0,22.883,8.188,22.883,24.554v43.98H872.3z"/>
		<path fill="#FFFFFF" d="M947.021,96.239V52.641c0-6.769-1.427-11.689-4.265-14.757c-2.854-3.075-7.264-4.608-13.246-4.608
			c-8.034,0-13.917,2.029-17.656,6.089c-3.73,4.059-5.601,10.651-5.601,19.762v37.113h-6.119V29.002h5.196l1.167,9.218h0.382
			c4.364-7.005,12.132-10.515,23.317-10.515c15.253,0,22.883,8.188,22.883,24.554v43.98H947.021z"/>
		<path fill="#FFFFFF" d="M1001.997,97.475c-9.767,0-17.382-3.014-22.845-9.026c-5.471-6.02-8.194-14.451-8.194-25.301
			c0-10.721,2.632-19.312,7.92-25.76c5.272-6.455,12.376-9.683,21.334-9.683c7.92,0,14.161,2.77,18.739,8.294
			c4.57,5.517,6.867,13.032,6.867,22.509v4.952H977.39c0.084,9.232,2.236,16.282,6.463,21.15c4.228,4.868,10.278,7.303,18.145,7.303
			c3.846,0,7.211-0.268,10.117-0.81c2.907-0.534,6.593-1.686,11.041-3.464v5.578c-3.792,1.64-7.302,2.77-10.514,3.364
			C1009.421,97.178,1005.881,97.475,1001.997,97.475z M1000.212,33.153c-6.479,0-11.675,2.129-15.589,6.401
			c-3.914,4.266-6.203,10.423-6.875,18.465h41.569c0-7.798-1.687-13.887-5.066-18.282
			C1010.871,35.351,1006.187,33.153,1000.212,33.153z"/>
		<path fill="#FFFFFF" d="M1070.844,27.705c2.846,0,5.891,0.298,9.156,0.87l-1.175,5.867c-2.808-0.694-5.715-1.045-8.722-1.045
			c-5.73,0-10.438,2.434-14.101,7.302c-3.67,4.868-5.509,11.01-5.509,18.427v37.113h-6.119V29.002h5.196l0.618,12.124h0.435
			c2.755-4.951,5.707-8.423,8.836-10.422C1062.604,28.704,1066.396,27.705,1070.844,27.705z"/>
	</g>
</g>
</svg>
