<?xml version="1.0" encoding="utf-8"?>
<!-- Generator: Adobe Illustrator 16.0.0, SVG Export Plug-In . SVG Version: 6.00 Build 0)  -->
<!DOCTYPE svg PUBLIC "-//W3C//DTD SVG 1.1//EN" "http://www.w3.org/Graphics/SVG/1.1/DTD/svg11.dtd">
<svg version="1.1" id="Layer_1" xmlns="http://www.w3.org/2000/svg" xmlns:xlink="http://www.w3.org/1999/xlink" x="0px" y="0px"
	 width="30px" height="30px" viewBox="0 0 30 30" enable-background="new 0 0 30 30" xml:space="preserve">
<path fill="#FFFFFF" d="M15.213,25.064c0.373-4.56-0.309-9.128-0.384-13.69c0.021-0.018,0.042-0.039,0.058-0.063l4.015-6.024
	c0.092-0.139,0.055-0.326-0.084-0.418c-0.139-0.092-0.325-0.055-0.417,0.084l-3.576,5.366c0.003-0.461,0.013-0.922,0.033-1.382
	c0.01-0.011,0.021-0.022,0.029-0.035l4.015-6.024c0.092-0.139,0.055-0.326-0.084-0.417c-0.139-0.092-0.325-0.055-0.417,0.083
	L14.93,7.752c0.038-0.476,0.086-0.951,0.148-1.427c0.005-0.042,0.002-0.078-0.007-0.11l3.83-5.747
	c0.092-0.139,0.055-0.325-0.084-0.417S18.492-0.004,18.4,0.134l-3.747,5.623l-3.285-5.608c-0.084-0.144-0.269-0.192-0.412-0.107
	c-0.144,0.084-0.191,0.269-0.107,0.412l3.528,6.024c0.018,0.032,0.043,0.057,0.071,0.08c-0.044,0.356-0.082,0.713-0.112,1.07
	l-2.968-5.068c-0.084-0.144-0.269-0.192-0.412-0.107c-0.144,0.084-0.191,0.269-0.107,0.412l3.417,5.835
	c-0.019,0.384-0.031,0.768-0.038,1.152l-2.859-4.882c-0.084-0.144-0.269-0.192-0.412-0.107c-0.144,0.084-0.191,0.269-0.107,0.412
	l3.375,5.762c0.044,4.617,0.75,9.241,0.399,13.856c-1.447-1.943-4.84-3.928-4.84-3.928S13.451,24.88,15,30
	c1.312-4.97,5.217-9.036,5.217-9.036S16.414,23.068,15.213,25.064z"/>
</svg>
