<?xml version="1.0" encoding="utf-8"?>
<!-- Generator: Adobe Illustrator 16.0.0, SVG Export Plug-In . SVG Version: 6.00 Build 0)  -->
<!DOCTYPE svg PUBLIC "-//W3C//DTD SVG 1.1//EN" "http://www.w3.org/Graphics/SVG/1.1/DTD/svg11.dtd">
<svg version="1.1" id="Layer_1" xmlns="http://www.w3.org/2000/svg" xmlns:xlink="http://www.w3.org/1999/xlink" x="0px" y="0px"
	 width="101.837px" height="64px" viewBox="0 0 101.837 64" enable-background="new 0 0 101.837 64" xml:space="preserve">
<g>
	<g>
		<path d="M32.365,62.768L32.365,62.768L32.1,62.765L1.882,62.766C0.843,62.766,0,61.923,0,60.883V2.693
			c0-1.04,0.843-1.882,1.882-1.882H32.16c11.147,0,18.351,6.821,18.351,17.378c0,5.37-2.164,8.694-4.716,10.632
			c0.972,0.536,1.853,1.221,2.639,2.053c4.344,4.593,4.129,12.085,4.093,12.882c-0.017,9.631-5.123,14.27-9.408,16.465
			C38.504,62.584,33.721,62.768,32.365,62.768z M3.765,59.001l28.6,0.002c0.814,0,5.073-0.103,9.038-2.134
			c4.884-2.501,7.359-6.929,7.359-13.16c0-0.035,0.001-0.07,0.003-0.106c0.004-0.062,0.305-6.591-3.075-10.152
			c-1.473-1.551-3.415-2.305-5.939-2.305c-1.012,0-1.844-0.8-1.882-1.812c-0.036-1.012,0.733-1.872,1.742-1.946
			c0.72-0.063,7.136-0.866,7.136-9.198c0-8.524-5.453-13.613-14.586-13.613H3.765V59.001z M30.883,52.43l-0.66-0.004h-15
			c-1.04,0-1.883-0.843-1.883-1.883V34.99c0-1.039,0.843-1.882,1.883-1.882H32.16c2.777,0,8.016,2.064,8.016,9.876
			c0,5.88-3.218,9.32-8.828,9.441C31.182,52.429,31.027,52.43,30.883,52.43z M17.105,48.661h14.164
			c2.542-0.055,5.143-0.771,5.143-5.677c0-5.766-3.54-6.102-4.25-6.111H17.105V48.661z M31.111,27.904H15.223
			c-1.04,0-1.883-0.843-1.883-1.882V13.038c0-1.04,0.843-1.882,1.883-1.882H32.16c2.075,0,6,1.658,6,7.934
			C38.16,25.103,35.92,27.904,31.111,27.904z M17.105,24.14h14.006c1.615,0,3.284,0,3.284-5.05c0-4.122-2.213-4.169-2.235-4.169
			H17.105V24.14z"/>
	</g>
	<g>
		<path d="M80.34,64c-0.436,0-0.729-0.011-0.849-0.017c-7.478-0.01-13.398-2.283-17.599-6.757
			c-7.065-7.524-6.648-18.544-6.594-19.548c0.007-0.687,0.155-6.293,2.986-11.96c2.785-5.574,8.732-12.22,21.254-12.22
			c7.195,0,12.798,2.227,16.653,6.618c7.037,8.018,5.532,20.25,5.465,20.766c-0.123,0.938-0.922,1.639-1.867,1.639H71.593
			c0.566,6.928,4.353,8.2,8.419,8.484c2.969,0.204,5.02-0.336,6.203-1.577c1.13-1.183,1.113-2.701,1.112-2.716
			c-0.023-0.514,0.164-1.015,0.52-1.386c0.354-0.372,0.847-0.583,1.361-0.583h10.244c1.04,0,1.883,0.843,1.883,1.883
			c0,6.896-3.194,12.057-9.237,14.925C87.439,63.762,82.323,64,80.34,64z M79.539,17.264c-20.188,0-20.473,19.64-20.476,20.477
			c0,0.037-0.001,0.079-0.004,0.116c-0.006,0.1-0.541,10.297,5.596,16.812c3.469,3.684,8.477,5.551,14.884,5.551
			c0.035,0,0.071,0.001,0.107,0.003c0.023,0.002,0.272,0.014,0.693,0.014c3.831,0,15.879-0.883,17.125-11.727h-6.606
			c-0.258,1.045-0.8,2.346-1.92,3.52c-1.764,1.847-4.382,2.783-7.782,2.783c-0.446,0-0.914-0.017-1.406-0.051
			c-2.967-0.207-11.994-0.839-11.994-14.122c0-1.039,0.843-1.882,1.882-1.882h28.401c0.125-3.33-0.145-11.009-4.688-16.17
			C90.242,19.054,85.595,17.264,79.539,17.264z M88.641,34.756H69.523c-0.546,0-1.062-0.236-1.421-0.646
			c-0.357-0.41-0.519-0.956-0.443-1.496c0.511-3.665,3.7-10.594,12.106-10.594c3.178,0,5.748,0.973,7.643,2.891
			c3.141,3.182,3.117,7.793,3.115,7.988C90.509,33.928,89.671,34.756,88.641,34.756z M72.023,30.992h14.484
			c-0.254-1.077-0.766-2.42-1.797-3.455c-1.159-1.163-2.823-1.752-4.945-1.752C75.044,25.784,72.931,28.817,72.023,30.992z"/>
	</g>
	<g>
		<path d="M91.027,10.932H67.02c-1.04,0-1.883-0.843-1.883-1.882V1.882C65.137,0.843,65.979,0,67.02,0h24.008
			c1.04,0,1.883,0.843,1.883,1.882V9.05C92.91,10.089,92.067,10.932,91.027,10.932z M68.901,7.167h20.244V3.765H68.901V7.167z"/>
	</g>
</g>
</svg>
