<?xml version="1.0" encoding="utf-8"?>
<!-- Generator: Adobe Illustrator 16.0.0, SVG Export Plug-In . SVG Version: 6.00 Build 0)  -->
<!DOCTYPE svg PUBLIC "-//W3C//DTD SVG 1.1//EN" "http://www.w3.org/Graphics/SVG/1.1/DTD/svg11.dtd">
<svg version="1.1" id="Layer_1" xmlns="http://www.w3.org/2000/svg" xmlns:xlink="http://www.w3.org/1999/xlink" x="0px" y="0px"
	 width="64px" height="64px" viewBox="0 0 64 64" enable-background="new 0 0 64 64" xml:space="preserve">
<g>
	<g>
		<path d="M20.606,51.625l-0.186-0.003L1.882,51.623C0.843,51.623,0,50.78,0,49.741V13.998c0-1.04,0.843-1.882,1.882-1.882H20.48
			c7.288,0,11.996,4.475,11.996,11.4c0,3.037-1.047,5.099-2.415,6.449c0.332,0.251,0.646,0.532,0.941,0.844
			c2.836,2.998,2.739,7.801,2.714,8.428c-0.016,6.272-3.364,9.304-6.174,10.743C24.562,51.506,21.479,51.625,20.606,51.625z
			 M3.765,47.858l16.841,0.002c0.47,0,2.933-0.06,5.22-1.23c2.776-1.422,4.126-3.855,4.126-7.438c0-0.035,0.001-0.07,0.003-0.104
			c0.051-1.032-0.152-4.079-1.695-5.701c-0.76-0.799-1.78-1.187-3.119-1.187c-1.012,0-1.843-0.801-1.881-1.812
			S23.991,28.516,25,28.44c0.603-0.059,3.711-0.581,3.711-4.924c0-6.892-5.756-7.636-8.231-7.636H3.765V47.858z M19.695,45.274
			l-0.405-0.002h-9.213c-1.04,0-1.882-0.843-1.882-1.883v-9.552c0-1.04,0.843-1.883,1.882-1.883H20.48
			c1.957,0,5.649,1.42,5.649,6.791c0,4.003-2.293,6.442-6.134,6.526L19.695,45.274z M11.959,41.508h7.958
			c1.549-0.033,2.448-0.497,2.448-2.762c0-2.673-1.329-3.007-1.9-3.026h-8.506V41.508z M19.835,30.21h-9.759
			c-1.04,0-1.882-0.843-1.882-1.882v-7.976c0-1.04,0.843-1.882,1.882-1.882H20.48c1.773,0,4.411,1.491,4.411,5.6
			C24.891,28.145,23.19,30.21,19.835,30.21z M11.959,26.446h7.876c0.805,0,1.291,0,1.291-2.375c0-1.08-0.282-1.784-0.735-1.839
			l-8.433,0.003V26.446z"/>
	</g>
	<g>
		<path d="M50.071,52.381c-0.264,0-0.448-0.006-0.538-0.01c-4.792-0.009-8.601-1.482-11.32-4.38
			c-4.503-4.795-4.284-11.769-4.245-12.527c0.007-0.531,0.126-4.078,1.908-7.647c1.802-3.607,5.643-7.908,13.704-7.908
			c4.638,0,8.264,1.451,10.774,4.312c4.538,5.168,3.574,12.998,3.531,13.328c-0.11,0.843-0.767,1.494-1.584,1.617
			c0.802,0.217,1.392,0.948,1.392,1.818C63.693,46.494,60.115,52.381,50.071,52.381z M49.58,23.673
			c-11.655,0-11.847,11.37-11.849,11.854c0,0.037-0.002,0.079-0.004,0.115c-0.004,0.056-0.306,6.026,3.246,9.79
			c1.988,2.105,4.883,3.174,8.606,3.174c0.036,0,0.071,0.001,0.107,0.003c0.02,0.001,0.157,0.007,0.384,0.007
			c6.926,0,9.043-3.233,9.641-5.749h-2.644c-0.221,0.619-0.587,1.306-1.189,1.937c-1.225,1.282-3.01,1.934-5.304,1.934
			c-0.29,0-0.596-0.011-0.916-0.033c-5.336-0.37-8.042-3.533-8.042-9.398c0-1.04,0.843-1.883,1.882-1.883h16.732
			c0.002-2.179-0.366-6.064-2.718-8.732C55.748,24.688,53.079,23.673,49.58,23.673z M45.518,39.188
			c0.518,3.191,2.441,3.625,4.403,3.761c0.229,0.016,0.447,0.024,0.654,0.024c0.843,0,1.975-0.134,2.581-0.77
			c0.464-0.485,0.482-1.126,0.482-1.132c-0.023-0.515,0.164-1.016,0.52-1.387c0.223-0.233,0.499-0.403,0.801-0.497H45.518z
			 M55.171,34.418H43.429c-0.545,0-1.062-0.236-1.42-0.646c-0.357-0.411-0.52-0.957-0.444-1.496
			c0.344-2.467,2.492-7.132,8.155-7.132c2.123,0,3.925,0.689,5.211,1.992c2.104,2.131,2.127,5.093,2.123,5.424
			C57.039,33.59,56.201,34.418,55.171,34.418z M46.174,30.653h6.706c-0.438-0.898-1.335-1.745-3.16-1.745
			C47.899,28.908,46.814,29.749,46.174,30.653z"/>
	</g>
	<g>
		<path d="M56.637,19.785H41.891c-1.039,0-1.882-0.843-1.882-1.882v-4.401c0-1.04,0.843-1.882,1.882-1.882h14.746
			c1.04,0,1.883,0.843,1.883,1.882v4.401C58.52,18.942,57.677,19.785,56.637,19.785z M43.773,16.021h10.981v-0.637H43.773V16.021z"
			/>
	</g>
</g>
</svg>
