<?xml version="1.0" encoding="utf-8"?>
<!-- Generator: Adobe Illustrator 16.0.0, SVG Export Plug-In . SVG Version: 6.00 Build 0)  -->
<!DOCTYPE svg PUBLIC "-//W3C//DTD SVG 1.1//EN" "http://www.w3.org/Graphics/SVG/1.1/DTD/svg11.dtd">
<svg version="1.1" id="Layer_1" xmlns="http://www.w3.org/2000/svg" xmlns:xlink="http://www.w3.org/1999/xlink" x="0px" y="0px"
	 width="138.818px" height="64px" viewBox="0 0 138.818 64" enable-background="new 0 0 138.818 64" xml:space="preserve">
<path d="M31.208,64c-9.13,0-16.696-2.956-22.486-8.787C2.935,49.392,0,41.562,0,31.945c0-9.616,2.936-17.428,8.727-23.217
	C14.518,2.937,22.082,0,31.208,0c7.534,0,14.042,1.91,19.341,5.676c5.35,3.806,8.934,9.3,10.652,16.33l0.572,2.33h-23.1
	l-0.512-1.067c-1.379-2.87-3.471-4.208-6.585-4.208c-3.204,0-5.492,1.062-6.995,3.245c-1.634,2.375-2.463,5.619-2.463,9.64
	c0,4.024,0.829,7.269,2.463,9.643c1.502,2.184,3.67,3.245,6.626,3.245c1.89,0,3.333-0.297,4.292-0.884
	c0.955-0.583,1.855-1.71,2.674-3.348l0.521-1.041h23.102l-0.6,2.349c-1.721,6.73-5.33,12.158-10.73,16.133
	C45.102,61.995,38.621,64,31.208,64z M31.208,3.765c-8.206,0-14.688,2.494-19.82,7.625C6.33,16.448,3.765,23.364,3.765,31.945
	c0,8.587,2.566,15.522,7.628,20.614c5.129,5.166,11.611,7.676,19.815,7.676c6.593,0,12.321-1.758,17.026-5.225
	c4.039-2.974,6.928-6.896,8.605-11.686H40.979c-1.018,1.744-2.199,3.031-3.516,3.837c-1.58,0.966-3.627,1.436-6.255,1.436
	c-4.228,0-7.501-1.641-9.728-4.875c-2.074-3.013-3.126-6.977-3.126-11.777c0-4.797,1.052-8.758,3.126-11.773
	c2.228-3.235,5.625-4.876,10.096-4.876c4.128,0,7.359,1.818,9.408,5.274h15.893c-1.664-5.015-4.518-8.986-8.51-11.826
	C43.719,5.44,37.945,3.765,31.208,3.765z M116.596,63.259H90.52L68.297,0.633h23.256l12.006,39.227l12.004-39.227h23.256
	L116.596,63.259z M93.178,59.494h20.76l19.551-55.096h-15.141l-12.457,40.71h-4.705L88.768,4.398H73.627L93.178,59.494z"/>
</svg>
