<?xml version="1.0" encoding="utf-8"?>
<!-- Generator: Adobe Illustrator 16.0.0, SVG Export Plug-In . SVG Version: 6.00 Build 0)  -->
<!DOCTYPE svg PUBLIC "-//W3C//DTD SVG 1.1//EN" "http://www.w3.org/Graphics/SVG/1.1/DTD/svg11.dtd">
<svg version="1.1" id="Layer_1" xmlns="http://www.w3.org/2000/svg" xmlns:xlink="http://www.w3.org/1999/xlink" x="0px" y="0px"
	 width="64px" height="64px" viewBox="0 0 64 64" enable-background="new 0 0 64 64" xml:space="preserve">
<path d="M52.489,8.207h-5.798c-2.108,0-3.821,1.713-3.821,3.812v5.996c0,0.884-0.009,1.985,0.837,2.842
	c0.358,0.357,1.007,0.781,2.042,0.781h6.739c2.108,0,3.821-1.713,3.821-3.812v-5.808C56.311,9.92,54.598,8.207,52.489,8.207z
	 M52.546,17.826c0,0.028-0.028,0.047-0.057,0.047h-5.854l0.056-5.901l5.854,0.047V17.826z M50.071,0.941H13.929
	C6.25,0.941,0,7.19,0,14.87v34.26c0,7.68,6.25,13.929,13.929,13.929h36.142C57.75,63.059,64,56.81,64,49.13V14.87
	C64,7.19,57.75,0.941,50.071,0.941z M60.235,49.13c0,5.609-4.555,10.164-10.165,10.164H13.929c-5.609,0-10.165-4.555-10.165-10.164
	V27.294H17.44c-1.864,2.88-2.946,6.307-2.946,9.977c0,10.175,8.273,18.447,18.447,18.447c10.174,0,18.447-8.272,18.447-18.447
	c0-3.67-1.082-7.097-2.946-9.977h11.793V49.13z M22.588,26.88c2.654-2.653,6.315-4.292,10.353-4.292
	c4.038,0,7.699,1.639,10.353,4.292c0.141,0.132,0.273,0.273,0.396,0.414c2.447,2.616,3.934,6.127,3.934,9.977
	c0,8.095-6.588,14.683-14.682,14.683c-8.094,0-14.683-6.588-14.683-14.683c0-3.85,1.487-7.36,3.934-9.977
	C22.315,27.153,22.447,27.012,22.588,26.88z M60.235,23.529H45.233c-3.266-2.927-7.577-4.706-12.292-4.706
	c-4.715,0-9.026,1.779-12.292,4.706H3.765V14.87c0-5.609,4.555-10.164,10.165-10.164h36.142c5.609,0,10.165,4.555,10.165,10.164
	V23.529z M32.941,48.188c6.023,0,10.917-4.895,10.917-10.918s-4.894-10.918-10.917-10.918s-10.918,4.895-10.918,10.918
	S26.918,48.188,32.941,48.188z M32.941,30.117c3.943,0,7.153,3.21,7.153,7.153s-3.209,7.153-7.153,7.153
	c-3.944,0-7.153-3.21-7.153-7.153S28.998,30.117,32.941,30.117z"/>
</svg>
