<?xml version="1.0" encoding="utf-8"?>
<!-- Generator: Adobe Illustrator 16.0.0, SVG Export Plug-In . SVG Version: 6.00 Build 0)  -->
<!DOCTYPE svg PUBLIC "-//W3C//DTD SVG 1.1//EN" "http://www.w3.org/Graphics/SVG/1.1/DTD/svg11.dtd">
<svg version="1.1" id="Layer_1" xmlns="http://www.w3.org/2000/svg" xmlns:xlink="http://www.w3.org/1999/xlink" x="0px" y="0px"
	 width="65.883px" height="64px" viewBox="0 0 65.883 64" enable-background="new 0 0 65.883 64" xml:space="preserve">
<path d="M48.461,21.299h5.958c2.127,0,3.858-1.732,3.858-3.859v-5.958c0-2.127-1.731-3.859-3.858-3.859h-5.958
	c-2.126,0-3.868,1.732-3.868,3.859v5.958C44.593,19.567,46.335,21.299,48.461,21.299z M48.357,11.482
	c0-0.057,0.047-0.094,0.104-0.094h5.958c0.057,0,0.094,0.038,0.094,0.094v5.958c0,0.056-0.037,0.094-0.094,0.094h-5.958
	c-0.057,0-0.104-0.038-0.104-0.094V11.482z M51.643,0H14.24C6.391,0,0,6.391,0,14.24v35.52C0,57.609,6.391,64,14.24,64h37.403
	c7.85,0,14.24-6.391,14.24-14.24V14.24C65.883,6.391,59.492,0,51.643,0z M3.765,14.24c0-5.778,4.697-10.475,10.475-10.475h37.403
	c5.778,0,10.475,4.697,10.475,10.475v9.29h-15.51c-3.36-3.096-7.85-4.998-12.771-4.998c-4.913,0-9.412,1.901-12.772,4.998H3.765
	V14.24z M48.941,37.402c0,8.329-6.777,15.105-15.105,15.105c-8.329,0-15.106-6.776-15.106-15.105c0-3.878,1.477-7.436,3.896-10.108
	l0.424-0.442c2.739-2.813,6.56-4.555,10.786-4.555c3.35,0,6.466,1.102,8.979,2.964c0.81,0.604,1.553,1.28,2.23,2.033
	C47.464,29.967,48.941,33.524,48.941,37.402z M51.643,60.235H14.24c-5.778,0-10.475-4.696-10.475-10.476V27.294h14.146
	c-1.863,2.928-2.946,6.4-2.946,10.108c0,10.409,8.471,18.871,18.871,18.871c10.408,0,18.87-8.462,18.87-18.871
	c0-3.708-1.082-7.181-2.946-10.108h12.357V49.76C62.117,55.539,57.421,60.235,51.643,60.235z M33.836,26.259
	c-6.146,0-11.144,4.998-11.144,11.144c0,6.155,4.998,11.152,11.144,11.152c6.146,0,11.152-4.997,11.152-11.152
	C44.988,31.257,39.981,26.259,33.836,26.259z M33.836,44.79c-4.076,0-7.379-3.312-7.379-7.388c0-4.066,3.303-7.379,7.379-7.379
	c4.075,0,7.388,3.312,7.388,7.379C41.224,41.478,37.911,44.79,33.836,44.79z"/>
</svg>
