<?xml version="1.0" encoding="utf-8"?>
<!-- Generator: Adobe Illustrator 16.0.0, SVG Export Plug-In . SVG Version: 6.00 Build 0)  -->
<!DOCTYPE svg PUBLIC "-//W3C//DTD SVG 1.1//EN" "http://www.w3.org/Graphics/SVG/1.1/DTD/svg11.dtd">
<svg version="1.1" id="Layer_1" xmlns="http://www.w3.org/2000/svg" xmlns:xlink="http://www.w3.org/1999/xlink" x="0px" y="0px"
	 width="64px" height="64px" viewBox="0 0 64 64" enable-background="new 0 0 64 64" xml:space="preserve">
<g>
	<path d="M62.118,63.642H50.355c-1.04,0-1.883-0.843-1.883-1.882V38.493c0-1.655-0.393-7.056-5.448-7.056
		c-2.657,0-4.967,1.836-5.666,3.612c-0.193,0.486-0.29,1.33-0.29,2.515V61.76c0,1.039-0.843,1.882-1.883,1.882H23.211
		c-1.04,0-1.883-0.843-1.883-1.882l0.003-31.022c0.005-4.134,0.01-7.703-0.127-10.749c-0.022-0.507,0.161-1.002,0.508-1.372
		c0.348-0.37,0.829-0.585,1.337-0.595l10.915-0.209c0.013-0.001,0.024-0.001,0.037-0.001c0.967,0,1.779,0.735,1.873,1.702
		l0.196,2.031c2.326-2.082,6.053-4.241,11.506-4.241C57.86,17.304,64,24.657,64,36.975V61.76C64,62.799,63.157,63.642,62.118,63.642
		z M52.237,59.877h7.998V36.975c0-10.257-4.496-15.906-12.659-15.906c-6.979,0-10.287,4.42-11.135,5.774
		c-0.344,0.551-0.946,0.885-1.596,0.885h-0.252c-0.97,0-1.78-0.736-1.874-1.701l-0.426-4.417l-7.261,0.14
		c0.07,2.664,0.067,5.646,0.062,8.993l-0.003,29.135h8.211V37.564c0-1.71,0.176-2.949,0.554-3.9
		c1.171-2.974,4.696-5.991,9.167-5.991c5.597,0,9.213,4.247,9.213,10.82V59.877z M14.193,63.431H2.22
		c-1.039,0-1.882-0.843-1.882-1.883V19.694c0-1.04,0.843-1.883,1.882-1.883h11.974c1.04,0,1.883,0.843,1.883,1.883v41.854
		C16.076,62.588,15.233,63.431,14.193,63.431z M4.103,59.666h8.209v-38.09H4.103V59.666z M8.543,16.936
		C3.673,16.936,0,13.373,0,8.649c0-4.804,3.663-8.291,8.709-8.291c4.966,0,8.514,3.392,8.627,8.247
		C17.337,13.45,13.639,16.936,8.543,16.936z M8.709,4.123c-2.957,0-4.944,1.819-4.944,4.526c0,2.662,1.965,4.521,4.778,4.521
		c3.008,0,5.029-1.816,5.029-4.521C13.506,5.874,11.643,4.123,8.709,4.123z"/>
</g>
</svg>
