<?xml version="1.0" encoding="utf-8"?>
<!-- Generator: Adobe Illustrator 16.0.0, SVG Export Plug-In . SVG Version: 6.00 Build 0)  -->
<!DOCTYPE svg PUBLIC "-//W3C//DTD SVG 1.1//EN" "http://www.w3.org/Graphics/SVG/1.1/DTD/svg11.dtd">
<svg version="1.1" id="Layer_1" xmlns="http://www.w3.org/2000/svg" xmlns:xlink="http://www.w3.org/1999/xlink" x="0px" y="0px"
	 width="64.727px" height="64px" viewBox="0 0 64.727 64" enable-background="new 0 0 64.727 64" xml:space="preserve">
<g>
	<path d="M62.844,64H50.938c-1.04,0-1.883-0.843-1.883-1.883V38.57c0-1.68-0.398-7.162-5.535-7.162c-2.7,0-5.046,1.865-5.755,3.669
		c-0.197,0.498-0.297,1.354-0.297,2.556v24.484c0,1.04-0.843,1.883-1.883,1.883H23.468c-1.04,0-1.882-0.843-1.882-1.883
		l0.002-31.406c0.005-4.179,0.01-7.787-0.128-10.869c-0.023-0.507,0.161-1.002,0.507-1.372c0.348-0.371,0.829-0.584,1.337-0.594
		l11.047-0.212c0.013,0,0.024,0,0.037,0c0.967,0,1.779,0.735,1.873,1.702l0.202,2.1c2.349-2.113,6.126-4.316,11.663-4.316
		c10.395,0,16.6,7.434,16.6,19.885v25.083C64.727,63.157,63.883,64,62.844,64z M52.82,60.235h8.141V37.034
		c0-10.396-4.558-16.12-12.834-16.12c-7.077,0-10.43,4.481-11.289,5.855c-0.344,0.55-0.946,0.884-1.596,0.884h-0.255
		c-0.97,0-1.78-0.737-1.874-1.702l-0.433-4.49l-7.392,0.142c0.072,2.7,0.068,5.72,0.063,9.113l-0.002,29.52h8.354V37.633
		c0-1.727,0.179-2.979,0.561-3.939c1.181-3.003,4.74-6.05,9.256-6.05c5.649,0,9.3,4.289,9.3,10.927V60.235z M14.342,63.788H2.224
		c-1.04,0-1.882-0.843-1.882-1.883V19.546c0-1.04,0.843-1.882,1.882-1.882h12.118c1.04,0,1.882,0.843,1.882,1.882v42.359
		C16.224,62.945,15.381,63.788,14.342,63.788z M4.106,60.023h8.354V21.428H4.106V60.023z M8.623,16.731
		C3.707,16.731,0,13.136,0,8.368C0,3.52,3.697,0,8.792,0c5.012,0,8.593,3.423,8.708,8.324C17.5,13.214,13.767,16.731,8.623,16.731z
		 M8.792,3.765c-3.006,0-5.027,1.85-5.027,4.603c0,2.708,1.998,4.599,4.858,4.599c3.058,0,5.113-1.848,5.113-4.599
		C13.669,5.589,11.729,3.765,8.792,3.765z"/>
</g>
</svg>
