<?xml version="1.0" encoding="utf-8"?>
<!-- Generator: Adobe Illustrator 16.0.0, SVG Export Plug-In . SVG Version: 6.00 Build 0)  -->
<!DOCTYPE svg PUBLIC "-//W3C//DTD SVG 1.1//EN" "http://www.w3.org/Graphics/SVG/1.1/DTD/svg11.dtd">
<svg version="1.1" id="Layer_1" xmlns="http://www.w3.org/2000/svg" xmlns:xlink="http://www.w3.org/1999/xlink" x="0px" y="0px"
	 width="84.678px" height="64px" viewBox="0 0 84.678 64" enable-background="new 0 0 84.678 64" xml:space="preserve">
<g>
	<path d="M30.69,64c-6.713,0-16.4-1.267-24.425-7.301L0,51.988l7.717,1.373c0.015,0.002,1.76,0.302,4.293,0.302
		c3.908,0,9.032-0.675,13.213-3.534c-3.711-1.072-8.848-3.84-11.059-10.975l-0.948-3.058l1.037,0.224
		c-3.013-2.7-5.495-6.889-5.394-12.998l0.06-3.618l2.246,1.647C8.661,16.937,7.322,10.804,11.1,4.345l1.334-2.28l1.71,2.016
		c0.125,0.147,12.451,14.472,27.666,14.93c-0.068-0.619-0.103-1.243-0.103-1.867c0-9.245,7.523-16.767,16.77-16.767
		c4.259,0,8.265,1.571,11.371,4.442c1.89-0.073,5.091-0.586,8.292-2.877L80.852,0l0.243,3.326c0.035,0.476,0.004,2.368-2.171,5.192
		c0.555-0.204,1.028-0.433,1.364-0.685l4.39-3.275l-1.467,5.277c-0.208,0.747-1.372,3.079-7.625,8.827
		c0.044,5.771-1.366,36.498-35.714,44.521C39.683,63.225,35.992,64,30.69,64z M14.807,57.299c5.612,2.366,11.449,2.958,15.883,2.958
		c4.881,0,8.333-0.718,8.367-0.726c34.584-8.078,32.86-40.185,32.77-41.548l-0.06-0.903l0.67-0.609
		c1.449-1.313,2.612-2.432,3.545-3.374c-1.392,0.234-2.482,0.329-2.747,0.35l-6.253,0.493l4.961-3.838
		c1.082-0.838,1.948-1.61,2.641-2.31C72.427,8.431,70.56,8.57,69.339,8.57l-1.037-0.015L67.764,8.01
		c-2.469-2.51-5.767-3.892-9.287-3.892c-7.184,0-13.027,5.843-13.027,13.024c0,1.096,0.137,2.188,0.406,3.244l0.563,2.203
		l-2.27,0.129c-14.438,0.816-26.396-9.576-30.93-14.146c-1.201,3.275-0.959,6.63,0.726,10.002c1.611,3.225,3.926,5.214,3.949,5.233
		l3.143,2.672l-4.081,0.604c-1.366,0.201-2.875-0.081-4.103-0.525c1.513,8.15,9.278,9.923,9.646,10.001l5.538,1.192l-5.151,2.343
		c-1.05,0.477-2.425,0.717-3.985,0.69c3.459,6.199,10.188,6.279,10.508,6.279h4.215l-2.815,3.127
		C26.269,55.214,20.014,56.895,14.807,57.299z"/>
</g>
</svg>
