<?xml version="1.0" encoding="utf-8"?>
<!-- Generator: Adobe Illustrator 16.0.0, SVG Export Plug-In . SVG Version: 6.00 Build 0)  -->
<!DOCTYPE svg PUBLIC "-//W3C//DTD SVG 1.1//EN" "http://www.w3.org/Graphics/SVG/1.1/DTD/svg11.dtd">
<svg version="1.1" id="Layer_1" xmlns="http://www.w3.org/2000/svg" xmlns:xlink="http://www.w3.org/1999/xlink" x="0px" y="0px"
	 width="64px" height="64px" viewBox="0 0 64 64" enable-background="new 0 0 64 64" xml:space="preserve">
<path d="M23.805,55.949c-4.976,0-12.16-0.941-18.122-5.424L0,46.252l7.001,1.246c0.01,0.002,1.268,0.217,3.094,0.217
	c2.642,0,6.054-0.426,8.945-2.172c-2.719-0.939-6.136-3.098-7.673-8.058l-0.86-2.774l0.208,0.045
	c-1.889-2.03-3.323-4.954-3.256-8.992l0.054-3.283l1.057,0.775c-1.444-3.188-1.933-7.287,0.578-11.581l1.209-2.068l1.552,1.828
	c0.089,0.106,8.853,10.282,19.702,10.83c-0.028-0.342-0.042-0.687-0.042-1.032c0-6.965,5.667-12.631,12.633-12.631
	c3.162,0,6.141,1.15,8.466,3.254c1.359-0.07,3.567-0.463,5.777-2.045l2.462-1.761l0.221,3.019c0.021,0.305,0.011,1.357-0.915,2.927
	L64,11.168l-1.331,4.789c-0.158,0.571-1.025,2.327-5.584,6.534c0.005,4.652-1.31,26.976-26.464,32.851
	C30.474,55.373,27.732,55.949,23.805,55.949z M13.512,50.891c3.679,1.316,7.397,1.664,10.293,1.664c3.544,0,6.051-0.521,6.076-0.525
	c25.097-5.863,23.861-29.168,23.796-30.158l-0.055-0.818l0.608-0.553c0.722-0.655,1.346-1.242,1.885-1.767
	c-0.49,0.062-0.866,0.096-1.057,0.11l-5.674,0.448l4.501-3.482c0.369-0.286,0.702-0.56,1.004-0.823
	c-1.098,0.222-2.04,0.28-2.716,0.28l-0.899-0.014l-0.488-0.495c-1.75-1.779-4.089-2.759-6.585-2.759
	c-5.094,0-9.237,4.143-9.237,9.235c0,0.781,0.097,1.554,0.288,2.3l0.513,2l-2.062,0.117c-10.333,0.6-18.964-6.562-22.578-10.108
	c-1.754,5.778,3.259,10.134,3.498,10.337l2.851,2.424l-3.701,0.549c-0.891,0.131-1.807,0.01-2.621-0.225
	c1.309,5.3,6.458,6.486,6.711,6.541l5.003,1.088l-4.653,2.119c-0.684,0.311-1.52,0.488-2.492,0.527
	c2.515,3.916,6.927,3.969,7.145,3.969h3.823l-2.555,2.836C21.116,49.049,17.095,50.414,13.512,50.891z"/>
</svg>
